{"title":"Red Sky 2014 BRRip x264 AC3-MiLLENiUM ","uid":9745217,"size":935861511,"categoryP":"video","categoryS":"movies","magnet":"?xt=urn:btih:a1791313effda3223726529a630b44bea5b6c091&amp;dn=Red+Sky+2014+BRRip+x264+AC3-MiLLENiUM+&amp;tr=udp%3A%2F%2Ftracker.openbittorrent.com%3A80&amp;tr=udp%3A%2F%2Fopen.demonii.com%3A1337&amp;tr=udp%3A%2F%2Ftracker.coppersurfer.tk%3A6969&amp;tr=udp%3A%2F%2Fexodus.desync.com%3A6969","seeders":5,"leechers":0,"uploader":"HeroMaster","files":-1,"time":1394576292,"description":"Red Sky 2014 BRRip x264 AC3-MiLLENiUM \n\nGeneral\n\nSource: DL.1080p.BluRay.x264-ENCOUNTERS [THANKS]\nIMDb Information: http://www.imdb.com/title/tt1946381/\nSample Included: yes\n\nGeneral\nComplete name: Red Sky 2014 BRRip x264 AC3-MiLLENiUM.mkv\nFormat: Matroska\nFormat version: Version 2\nFile size: 872 MiB\nDuration: 1h 47mn\nOverall bit rate mode: Variable\nOverall bit rate: 1 132 Kbps\nEncoded date: UTC 2014-03-11 15:37:54\nWriting application: mkvmerge v6.5.0 ('Isn't she lovely') built on Oct 20 2013 12:50:05\nWriting library: libebml v1.3.0 + libmatroska v1.4.1\n\nVideo\nID: 1\nFormat: AVC\nFormat/Info: Advanced Video Codec\nFormat profile: &lt;a class=&quot;__cf_email__&quot; href=&quot;/cdn-cgi/l/email-protection&quot; data-cfemail=&quot;226a4b454a626e160c13&quot;&gt;[email&amp;#160;protected]&lt;/a&gt;&lt;script cf-hash='f9e31' type=&quot;text/javascript&quot;&gt;\n/* &lt;![CDATA[ */!function(){try{var t=&quot;currentScript&quot;in document?document.currentScript:function(){for(var t=document.getElementsByTagName(&quot;script&quot;),e=t.length;e--;)if(t[e].getAttribute(&quot;cf-hash&quot;))return t[e]}();if(t&amp;&amp;t.previousSibling){var e,r,n,i,c=t.previousSibling,a=c.getAttribute(&quot;data-cfemail&quot;);if(a){for(e=&quot;&quot;,r=parseInt(a.substr(0,2),16),n=2;a.length-n;n+=2)i=parseInt(a.substr(n,2),16)^r,e+=String.fromCharCode(i);e=document.createTextNode(e),c.parentNode.replaceChild(e,c)}}}catch(u){}}();/* ]]&gt; */&lt;/script&gt;\nFormat settings, CABAC: Yes\nFormat settings, ReFrames: 3 frames\nCodec ID: V_MPEG4/ISO/AVC\nDuration: 1h 47mn\nBit rate mode: Variable\nBit rate: 662 Kbps\nMaximum bit rate: 40.0 Mbps\nWidth: 720 pixels\nHeight: 304 pixels\nDisplay aspect ratio: 2.35:1\nFrame rate mode: Constant\nFrame rate: 23.976 fps\nColor space: YUV\nChroma subsampling: 4:2:0\nBit depth: 8 bits\nScan type: Progressive\nBits/(Pixel*Frame): 0.126\nStream size: 510 MiB (58%)\nWriting library: x264 core 138 r2358 9e941d1\n\nAudio\nID: 2\nFormat: AC-3\nFormat/Info: Audio Coding 3\nMode extension: CM (complete main)\nFormat settings, Endianness: Big\nCodec ID: A_AC3\nDuration: 1h 47mn\nBit rate mode: Constant\nBit rate: 448 Kbps\nChannel(s): 6 channels\nChannel positions: Front: L C R, Side: L R, LFE\nSampling rate: 48.0 KHz\nBit depth: 16 bits\nCompression mode: Lossy\nStream size: 345 MiB (40%)\nLanguage: English\nDefault: Yes\nForced: No \n\n\nPlot\n\nDisgraced Top Gun fighter pilot Butch Masters leads a rogue squad in recovery of a WMD. Masters must navigate a fractured friendship, a love triangle, and must take to the skies to reclaim his military and personal honor.\n\n\nGreetz and Respect:\n\n\nALL CREDIT Goes to MiLLENiUM for Encoding and harks87 for Distribution.\n\n\nPoster:\n\n &lt;a href=&quot;\nhttp://i.imgur.com/KsEtyAM.jpg&quot; rel=&quot;nofollow&quot; target=&quot;_NEW&quot;&gt;\nhttp://i.imgur.com/KsEtyAM.jpg&lt;/a&gt;\n\n\nScreenshots:\n\n &lt;a href=&quot;\nhttp://i.imgur.com/PRbpIcw.jpg&quot; rel=&quot;nofollow&quot; target=&quot;_NEW&quot;&gt;\nhttp://i.imgur.com/PRbpIcw.jpg&lt;/a&gt;\n\n\nSEED AND ENJOY!","torrent":{"xt":"urn:btih:a1791313effda3223726529a630b44bea5b6c091","amp;dn":"Red+Sky+2014+BRRip+x264+AC3-MiLLENiUM+","amp;tr":["udp%3A%2F%2Ftracker.openbittorrent.com%3A80","udp%3A%2F%2Fopen.demonii.com%3A1337","udp%3A%2F%2Ftracker.coppersurfer.tk%3A6969","udp%3A%2F%2Fexodus.desync.com%3A6969"],"infoHash":"a1791313effda3223726529a630b44bea5b6c091","infoHashBuffer":{"type":"Buffer","data":[161,121,19,19,239,253,163,34,55,38,82,154,99,11,68,190,165,182,192,145]},"announce":[],"urlList":[]}}